<svg data-v-423bf9ae="" xmlns="http://www.w3.org/2000/svg" viewBox="0 0 486 90" class="iconLeftSlogan"><!----><!----><!----><g data-v-423bf9ae="" id="cb80b379-56e0-4b75-ad9a-29850290da95" fill="#FFFFFF" transform="matrix(4.470938871750703,0,0,4.470938871750703,103.99077834045451,0.6706414236556029)"><path d="M0 10.50L3.56 0L5.19 0L8.75 10.50L7 10.50L6.07 7.58L2.68 7.58L1.75 10.50L0 10.50ZM3.06 6.42L5.69 6.42L4.38 2.22L3.06 6.42ZM14.41 6.71L17.91 0L16.16 0L13.68 5.25L11.20 0L9.45 0L12.95 6.71L12.95 10.50L14.41 10.50L14.41 6.71ZM29.11 0L29.11 8.75Q29.11 10.65 25.61 10.65L25.61 10.65Q22.11 10.65 22.11 8.75L22.11 8.75L22.11 0L23.57 0L23.57 8.46Q23.57 9.48 25.61 9.48L25.61 9.48Q27.65 9.48 27.65 8.46L27.65 8.46L27.65 0L29.11 0ZM30.28 2.92L30.28 10.50L31.73 10.50L31.73 4.96Q31.73 3.94 33.48 3.94L33.48 3.94Q35.23 3.94 35.23 4.96L35.23 4.96L35.23 10.50L36.69 10.50L36.69 4.67Q36.69 2.77 34.21 2.77Q31.73 2.77 31.73 3.94L31.73 3.94L31.73 2.92L30.28 2.92ZM39.32 2.92L37.86 2.92L37.86 10.50L39.32 10.50L39.32 2.92ZM39.43 0.66Q39.43-0.15 38.59-0.15Q37.74-0.15 37.74 0.66Q37.74 1.46 38.59 1.46Q39.43 1.46 39.43 0.66ZM45.03 10.50L47.83 2.92L46.08 2.92L44.16 8.81L42.23 2.92L40.48 2.92L43.28 10.50L45.03 10.50ZM48.53 4.67L48.53 4.67L48.53 8.75Q48.53 10.65 51.74 10.65L51.74 10.65Q54.95 10.65 54.95 8.75L54.95 8.75L54.95 7.88L53.49 7.88L53.49 8.46Q53.49 9.48 51.74 9.48L51.74 9.48Q49.99 9.48 49.99 8.46L49.99 8.46L49.99 7.29L54.95 7.29L54.95 4.67Q54.95 2.77 51.74 2.77L51.74 2.77Q48.53 2.77 48.53 4.67ZM53.49 6.13L49.99 6.13L49.99 4.96Q49.99 3.94 51.74 3.94L51.74 3.94Q53.49 3.94 53.49 4.96L53.49 4.96L53.49 6.13ZM56.12 2.92L56.12 10.50L57.58 10.50L57.58 4.96Q57.58 3.94 58.86 3.94Q60.14 3.94 60.14 4.96L60.14 4.96L60.14 5.54L61.60 5.54L61.60 4.67Q61.60 2.77 59.59 2.77Q57.58 2.77 57.58 3.94L57.58 3.94L57.58 2.92L56.12 2.92ZM64.37 5.30L64.37 5.30L64.37 4.96Q64.37 3.94 65.97 3.94L65.97 3.94Q67.58 3.94 67.58 4.96L67.58 4.96L67.58 5.54L69.04 5.54L69.04 4.67Q69.04 2.77 65.97 2.77L65.97 2.77Q62.91 2.77 62.91 4.67L62.91 4.67L62.91 5.40Q62.91 7.17 65.97 7.29L65.97 7.29Q67.72 7.40 67.72 8.02L67.72 8.02L67.72 8.46Q67.72 9.48 65.97 9.48L65.97 9.48Q64.22 9.48 64.22 8.46L64.22 8.46L64.22 7.88L62.77 7.88L62.77 8.75Q62.77 10.65 65.97 10.65L65.97 10.65Q69.18 10.65 69.18 8.75L69.18 8.75L69.18 7.73Q69.18 6.11 65.97 5.98L65.97 5.98Q64.37 5.91 64.37 5.30ZM71.81 2.92L70.35 2.92L70.35 10.50L71.81 10.50L71.81 2.92ZM71.92 0.66Q71.92-0.15 71.08-0.15Q70.23-0.15 70.23 0.66Q70.23 1.46 71.08 1.46Q71.92 1.46 71.92 0.66ZM73.79 0.58L75.25 0.58L75.25 2.92L76.71 2.92L76.71 4.08L75.25 4.08L75.25 8.17Q75.25 9.33 76.71 9.33L76.71 9.33L76.71 10.50L75.25 10.50Q73.79 10.50 73.79 8.75L73.79 8.75L73.79 4.08L72.97 4.08L72.97 2.92L73.79 2.92L73.79 0.58ZM85.34 2.92L81.91 11.76Q81.42 13.27 80.24 13.27L80.24 13.27L79.16 13.27L79.16 12.10L80.06 12.10Q80.56 12.10 80.76 11.38L80.76 11.38L81.04 10.50L77.88 2.92L79.63 2.92L81.67 8.80L83.59 2.92L85.34 2.92Z"></path></g><!----><g data-v-423bf9ae="" id="17c20d44-1b46-4dc2-a368-b284f1a1a514" transform="matrix(1.1032358960172335,0,0,1.1032358960172335,-12.227409706850423,-8.90700983472695)" stroke="none" fill="#F6061A"><path d="M35.742 42.748c-13.147 0-23.808 10.658-23.808 23.808 0 13.148 10.66 23.808 23.808 23.808s23.807-10.659 23.807-23.808c0-13.15-10.659-23.808-23.807-23.808zM15.226 66.556c0-4.351 1.356-8.382 3.667-11.702l.264.2-.159.641.588.161-.108-.856.481-.054v-1.123h.481l.174.446.201.516.535.59s-.642.159-.854.159c-.216 0-.108.856-.108.856l.749.267.483-.894 1.121-1.246.534-1.658 1.017-.963-.589-.426.644-.43.054-.589-1.872.536-.061-.071a20.626 20.626 0 013.301-2.29l.878.382-.589 1.123h-1.177l-.214 1.016h.964l1.391-.855.962-.962.16-.909-1.39-.106.962-.643.908.161-.158.962 1.229-.75.215.589.268.856-.696.855-.748.695-1.125-.16.536 1.123-1.016-.16-1.713 1.765.429.589 1.391-.108 1.177-.375 1.499-.158.694-.16s0-.429-.054-.695c-.054-.268.535.053.535.053l.643-.374.48-1.498 1.766-.804-.268-.428.429-.534-1.391-.216.375-.535-1.767-.589h-.909l.32-.802.375-.375-.03-.03a20.593 20.593 0 014.632-.53c2.483 0 4.862.441 7.066 1.25l-.055.125-.891-.059v.535l.357.237v.476l.298.415-1.07-.653-.713.357.356.832.179.951.476.535 1.127.179-.235.475-.239.715 1.011.653-.06.297-1.901-1.604-.117.595.831.831.476.179-1.071.237-.118.535-.772-.773-.477-1.009-.177-1.012-.477.594.356 1.427.594.418-.236 1.365-.357-.178.06.714-.536-.061-.533-.773h-.653l-.951-.119-.952.061-.892.714-.594 1.01-1.249.952-.119.533v.656l.298.653.595-.477.177.357.299.534.059.12.297.356.536-.355-.06-1.309.653-.833.069-.303c.051-.217.108-.469.108-.469l.238-.656.417.061-.119.535-.239 1.188 1.131-.118.417.118-.893.24.119.594-1.013.652.061.655-.891.238-.178.475-.714-.237h-.476v-1.01l-.536.18v.534l-1.486 1.189-.833.297-.355.416-1.188-.298-.061.536.773.297-.06 1.069-2.142-.06-.296.476-.298.832-.356.716.535.594.595.712 1.903-.595.119-.713.417-.357.713-.238-.06-.475.654-.179.951-.179.595.713 1.07.774.475.771v.357l.594-.357-.296-.533.119-.597-.536-.236-.475-.653.297-.953.534.773.771.596.297 1.07.774.593.179.654.357-.772-.119-.357.177-.297 1.128-.951.239-1.189.477-.356.593.06.894-.893.058.715 1.307.415v.654h-1.068l-1.605.832-1.307.714.355.772 1.189.237.654.298.713-.475.059 2.021-2.021.416-2.14-.595-.832.654.356.356-.655-.119-2.078-.772-.595.06-.477-.773v-.951h-1.07l-.594-.119-1.902.417-1.486-.119-.654.357-.416.06-.237.771-1.367.951-1.903 1.428-.119 1.841-.534 1.19.059.712.476.834 1.368 2.317 1.427.654 2.377.179-.119-1.012-.534-.296.237-.536.416.476.417 1.248 1.782.12.714.713 1.011.416.118 1.724 1.071 1.367 1.01 1.783-.892 1.07.911 1.416c-10.981-.396-19.762-9.418-19.762-20.496zm27.546 19.28l2.48-1.804-.892-2.199 2.854-3.745.89-2.378.416-1.309-1.485.715-.892.179-2.198-1.368-.655-1.487-.831-.832-1.069-2.378.891.714 1.666 1.843.594.831 1.188.596.356 1.546 1.428-.952 1.724-2.141.832-2.198-.654-.534-.357-.655-.416.773-.831.951-1.19-1.31-.355-1.009.832.179.832.415 1.189-.415.714.237 1.9-1.308 1.071.594.653-.356 1.422 2.238.703-.672.014-.853.06-2.557.437-1.211c.107.845.168 1.704.168 2.578-.002 8.863-5.619 16.412-13.489 19.282zM87.597 20.826L69.667 8.96a1.036 1.036 0 00-.793-.151l-19.859 4.193c-.4.084-.715.396-.805.798l-.119.537c-.094.423.082.86.445 1.1l8.314 5.503-.339 1.533c-3.004 2.252-4.957 5.83-4.957 9.871 0 6.816 5.529 12.346 12.342 12.346 6.814 0 12.344-5.529 12.344-12.346 0-1.464-.269-2.863-.737-4.166.185-.236.312-.488.371-.755l.414-1.876 5.364-1.133c.667.943 1.103 2.088 1.212 3.547a1.689 1.689 0 00-.922 1.5c0 .551.267 1.034.674 1.344-.461 2.352-1.076 6.673.15 8.589.361.563.873.924 1.479 1.039a.76.76 0 00.284-1.49c-.133-.025-.308-.09-.485-.367-.433-.676-.534-2.01-.454-3.516.374 1.168.949 2.219 1.836 2.803a.76.76 0 00.834-1.268c-1.192-.785-1.695-3.477-1.803-5.66.52-.289.875-.837.875-1.474 0-.667-.389-1.238-.949-1.514-.1-1.555-.504-2.82-1.128-3.871l3.861-.816c.401-.084.716-.396.805-.797l.119-.537a1.045 1.045 0 00-.443-1.1zm-20.555-4.105c.017-.137.156-.249.415-.304.516-.108 1.313.054 1.78.362.233.154.34.316.322.454l-.076.376c-.018.137-.156.248-.414.303-.518.109-1.313-.053-1.78-.361-.233-.155-.34-.317-.323-.454l.076-.376z"></path><path d="M63.896 47.08c-2.799 0-5.464.698-7.888 1.959 4.069 4.702 6.54 10.824 6.54 17.517 0 4.897-1.326 9.489-3.63 13.444h18.437c3.72 0 6.73-3.68 6.73-8.23.001-13.629-9.042-24.69-20.189-24.69z"></path></g><!----><g data-v-423bf9ae="" id="c8b2ee7d-abd7-407a-b064-39ea2cdea4e8" fill="#E80C0C" transform="matrix(1.6365510815360451,0,0,1.6365510815360451,103.99651533540086,58.8526454767762)"><path d="M5.56 1.12Q5.53 0.90 4.79 1.07L4.79 1.07Q4.06 1.25 4.10 1.51L4.10 1.51Q4.29 2.73 4.06 4.12L4.06 4.12Q3.79 5.76 3.04 6.75L3.04 6.75Q2.89 6.95 2.64 7.16L2.64 7.16Q2.57 7.23 2.46 7.29L2.46 7.29Q2.47 7.29 2.39 7.34L2.39 7.34L2.38 7.34Q2.38 7.34 2.38 7.34L2.38 7.34Q2.30 7.36 2.24 7.38L2.24 7.38L2.23 7.37Q2.22 7.37 2.21 7.37L2.21 7.37Q2.18 7.36 2.11 7.35L2.11 7.35Q2.11 7.35 2.08 7.33L2.08 7.33Q2.07 7.33 2.05 7.33L2.05 7.33Q1.46 7.06 1.46 5.83L1.46 5.83Q1.46 4.47 2.43 1.59L2.43 1.59Q2.51 1.34 1.84 1.46L1.84 1.46Q1.07 1.60 0.98 1.85L0.98 1.85Q0.12 4.44 0.01 5.87L0.01 5.87Q-0.08 7.12 0.43 7.65L0.43 7.65Q0.70 7.94 1.31 7.96L1.31 7.96Q1.46 7.97 1.61 7.96L1.61 7.96Q1.56 8.59 1.03 10.68L1.03 10.68Q0.97 10.94 1.61 10.82L1.61 10.82Q1.92 10.77 2.17 10.65L2.17 10.65Q2.45 10.52 2.47 10.42L2.47 10.42Q3.01 8.28 3.08 7.59L3.08 7.59Q3.12 7.57 3.12 7.57L3.12 7.57Q4.71 6.90 5.33 4.67L5.33 4.67Q5.83 2.84 5.56 1.12L5.56 1.12ZM15.24 5.20Q15.12 6.64 14.85 7.92L14.85 7.92Q14.44 9.88 13.67 10.64L13.67 10.64Q13.58 10.55 13.51 10.38L13.51 10.38Q13.32 9.97 13.34 9.03L13.34 9.03Q13.36 7.34 13.94 5.48L13.94 5.48Q14.44 3.85 15.13 3.01L15.13 3.01Q15.21 3.25 15.26 3.62L15.26 3.62Q15.33 4.21 15.24 5.20L15.24 5.20ZM16.17 1.96Q15.97 1.79 15.23 2.05L15.23 2.05Q14.73 2.24 14.75 2.39L14.75 2.39Q14.50 2.48 14.32 2.63L14.32 2.63Q13.34 3.40 12.67 5.22L12.67 5.22Q12.13 6.70 11.94 8.50L11.94 8.50Q11.85 9.28 11.88 9.92L11.88 9.92Q11.92 10.77 12.28 11.13L12.28 11.13Q12.47 11.31 12.90 11.33L12.90 11.33Q13.44 11.36 14.27 11.02L14.27 11.02Q14.95 10.74 15.47 9.94L15.47 9.94Q15.94 9.21 16.26 7.85L16.26 7.85Q16.47 6.94 16.59 5.84L16.59 5.84Q16.75 4.44 16.75 3.78L16.75 3.78Q16.74 2.45 16.17 1.96L16.17 1.96ZM28.07 2.21Q27.43 2.38 27.40 2.63L27.40 2.63Q27.34 3.01 27.19 4.51L27.19 4.51Q27.06 5.69 26.93 6.41L26.93 6.41Q26.52 8.57 25.42 9.83L25.42 9.83Q25.27 10.00 25.16 10.12L25.16 10.12Q24.90 9.61 24.86 8.40L24.86 8.40Q24.81 6.90 25.73 4.58L25.73 4.58Q26.41 2.88 26.58 2.40L26.58 2.40Q26.67 2.15 26.00 2.26L26.00 2.26Q25.22 2.41 25.14 2.66L25.14 2.66Q24.97 3.12 24.42 4.53L24.42 4.53Q23.95 5.71 23.74 6.43L23.74 6.43Q23.08 8.66 23.65 10.36L23.65 10.36Q23.75 10.68 23.95 10.83L23.95 10.83Q24.18 11.03 24.82 10.92L24.82 10.92Q25.83 10.73 26.74 9.71L26.74 9.71Q27.91 8.41 28.34 6.34L28.34 6.34Q28.50 5.55 28.64 4.29L28.64 4.29Q28.81 2.58 28.86 2.24L28.86 2.24Q28.88 2.11 28.49 2.14L28.49 2.14Q28.24 2.16 28.07 2.21L28.07 2.21ZM39.30 5.31Q39.15 6.24 38.25 7.18L38.25 7.18Q38.06 7.38 37.82 7.58L37.82 7.58Q37.76 7.63 37.70 7.68L37.70 7.68Q37.48 7.59 37.23 7.58L37.23 7.58Q37.79 4.74 37.93 2.66L37.93 2.66Q38.20 2.80 38.44 2.99L38.44 2.99Q38.95 3.39 39.18 4.03L39.18 4.03Q39.41 4.65 39.30 5.31L39.30 5.31ZM36.33 2.40Q36.33 2.40 36.34 2.39L36.34 2.39Q36.33 2.40 36.33 2.40L36.33 2.40ZM41.26 11.42Q40.53 10.88 39.00 8.99L39.00 8.99Q38.33 8.17 38.21 8.05L38.21 8.05Q38.67 7.84 39.10 7.50L39.10 7.50Q40.30 6.56 40.66 5.41L40.66 5.41Q40.91 4.60 40.70 3.84L40.70 3.84Q40.49 3.07 39.87 2.53L39.87 2.53Q38.62 1.46 36.55 1.88L36.55 1.88Q36.42 1.91 36.22 1.96L36.22 1.96Q35.49 2.14 35.55 2.37L35.55 2.37Q35.61 2.58 36.32 2.40L36.32 2.40Q36.39 2.39 36.44 2.38L36.44 2.38Q36.48 2.37 36.51 2.37L36.51 2.37Q36.39 5.11 35.16 10.79L35.16 10.79Q35.10 11.04 35.74 10.92L35.74 10.92Q36.05 10.87 36.30 10.75L36.30 10.75Q36.58 10.62 36.60 10.53L36.60 10.53Q36.89 9.17 36.99 8.72L36.99 8.72Q37.00 8.72 37.00 8.72L37.00 8.72Q37.00 8.72 37.00 8.72L37.00 8.72Q37.11 8.85 37.80 9.70L37.80 9.70Q39.12 11.34 39.88 11.92L39.88 11.92Q40.11 12.09 40.82 11.83L40.82 11.83Q41.01 11.76 41.15 11.67L41.15 11.67Q41.40 11.52 41.26 11.42L41.26 11.42ZM63.36 1.59Q62.25 1.45 60.57 1.75L60.57 1.75Q60.58 1.74 60.59 1.70L60.59 1.70Q60.60 1.66 60.60 1.64L60.60 1.64Q60.67 1.39 60.02 1.50L60.02 1.50Q59.72 1.56 59.47 1.67L59.47 1.67Q59.19 1.80 59.17 1.90L59.17 1.90Q59.17 1.88 59.12 2.08L59.12 2.08Q58.93 2.18 58.86 2.30L58.86 2.30Q58.80 2.43 59.01 2.45L59.01 2.45Q57.74 7.25 57.24 10.98L57.24 10.98Q57.22 11.10 57.61 11.07L57.61 11.07Q57.86 11.05 58.03 11.00L58.03 11.00Q58.67 10.83 58.70 10.59L58.70 10.59Q58.92 8.95 59.28 7.16L59.28 7.16Q59.21 7.17 60.27 7.09L60.27 7.09Q60.92 7.05 61.25 6.75L61.25 6.75Q61.41 6.60 61.22 6.54L61.22 6.54Q61.09 6.50 60.91 6.51L60.91 6.51Q59.78 6.60 59.38 6.66L59.38 6.66Q59.80 4.65 60.44 2.24L60.44 2.24Q61.46 2.06 62.15 2.15L62.15 2.15Q62.63 2.21 63.17 1.96L63.17 1.96Q63.31 1.89 63.42 1.78L63.42 1.78Q63.57 1.62 63.36 1.59L63.36 1.59ZM73.14 2.21Q72.50 2.38 72.47 2.63L72.47 2.63Q72.41 3.01 72.26 4.51L72.26 4.51Q72.13 5.69 72.00 6.41L72.00 6.41Q71.59 8.57 70.49 9.83L70.49 9.83Q70.34 10.00 70.23 10.12L70.23 10.12Q69.97 9.61 69.93 8.40L69.93 8.40Q69.88 6.90 70.80 4.58L70.80 4.58Q71.48 2.88 71.65 2.40L71.65 2.40Q71.74 2.15 71.07 2.26L71.07 2.26Q70.29 2.41 70.21 2.66L70.21 2.66Q70.04 3.12 69.49 4.53L69.49 4.53Q69.02 5.71 68.81 6.43L68.81 6.43Q68.15 8.66 68.71 10.36L68.71 10.36Q68.82 10.68 69.02 10.83L69.02 10.83Q69.25 11.03 69.89 10.92L69.89 10.92Q70.90 10.73 71.81 9.71L71.81 9.71Q72.98 8.41 73.41 6.34L73.41 6.34Q73.57 5.55 73.71 4.29L73.71 4.29Q73.88 2.58 73.93 2.24L73.93 2.24Q73.94 2.11 73.56 2.14L73.56 2.14Q73.31 2.16 73.14 2.21L73.14 2.21ZM85.29 2.35Q84.33 2.17 83.32 2.15L83.32 2.15Q83.23 2.03 82.75 2.11L82.75 2.11Q82.65 2.13 82.54 2.16L82.54 2.16Q81.47 2.22 80.43 2.46L80.43 2.46Q79.69 2.63 79.76 2.88L79.76 2.88Q79.81 3.08 80.53 2.91L80.53 2.91Q80.54 2.91 80.55 2.90L80.55 2.90Q80.57 2.90 80.58 2.89L80.58 2.89Q80.66 2.88 80.81 2.85L80.81 2.85Q80.98 2.82 81.20 2.80L81.20 2.80Q81.49 2.76 81.82 2.75L81.82 2.75Q80.40 7.40 80.01 10.96L80.01 10.96Q80.00 11.02 80.23 11.03L80.23 11.03Q80.44 11.04 80.72 10.99L80.72 10.99Q81.44 10.86 81.47 10.56L81.47 10.56Q81.85 7.19 83.17 2.78L83.17 2.78Q83.64 2.82 84.08 2.91L84.08 2.91Q84.51 2.99 85.10 2.72L85.10 2.72Q85.26 2.65 85.35 2.54L85.35 2.54Q85.50 2.39 85.29 2.35L85.29 2.35ZM95.51 2.21Q94.88 2.38 94.84 2.63L94.84 2.63Q94.79 3.01 94.63 4.51L94.63 4.51Q94.51 5.69 94.37 6.41L94.37 6.41Q93.97 8.57 92.87 9.83L92.87 9.83Q92.72 10.00 92.61 10.12L92.61 10.12Q92.35 9.61 92.31 8.40L92.31 8.40Q92.25 6.90 93.17 4.58L93.17 4.58Q93.86 2.88 94.02 2.40L94.02 2.40Q94.11 2.15 93.44 2.26L93.44 2.26Q92.67 2.41 92.58 2.66L92.58 2.66Q92.42 3.12 91.86 4.53L91.86 4.53Q91.40 5.71 91.18 6.43L91.18 6.43Q90.52 8.66 91.09 10.36L91.09 10.36Q91.19 10.68 91.39 10.83L91.39 10.83Q91.62 11.03 92.26 10.92L92.26 10.92Q93.28 10.73 94.19 9.71L94.19 9.71Q95.35 8.41 95.79 6.34L95.79 6.34Q95.94 5.55 96.08 4.29L96.08 4.29Q96.26 2.58 96.30 2.24L96.30 2.24Q96.32 2.11 95.94 2.14L95.94 2.14Q95.68 2.16 95.51 2.21L95.51 2.21ZM106.74 5.31Q106.59 6.24 105.70 7.18L105.70 7.18Q105.51 7.38 105.27 7.58L105.27 7.58Q105.21 7.63 105.14 7.68L105.14 7.68Q104.92 7.59 104.67 7.58L104.67 7.58Q105.23 4.74 105.38 2.66L105.38 2.66Q105.64 2.80 105.88 2.99L105.88 2.99Q106.39 3.39 106.63 4.03L106.63 4.03Q106.85 4.65 106.74 5.31L106.74 5.31ZM103.77 2.40Q103.77 2.40 103.78 2.39L103.78 2.39Q103.78 2.40 103.77 2.40L103.77 2.40ZM108.71 11.42Q107.97 10.88 106.44 8.99L106.44 8.99Q105.77 8.17 105.66 8.05L105.66 8.05Q106.11 7.84 106.54 7.50L106.54 7.50Q107.75 6.56 108.10 5.41L108.10 5.41Q108.35 4.60 108.14 3.84L108.14 3.84Q107.93 3.07 107.31 2.53L107.31 2.53Q106.07 1.46 104.00 1.88L104.00 1.88Q103.87 1.91 103.67 1.96L103.67 1.96Q102.93 2.14 102.99 2.37L102.99 2.37Q103.05 2.58 103.76 2.40L103.76 2.40Q103.83 2.39 103.88 2.38L103.88 2.38Q103.92 2.37 103.95 2.37L103.95 2.37Q103.84 5.11 102.60 10.79L102.60 10.79Q102.55 11.04 103.18 10.92L103.18 10.92Q103.49 10.87 103.74 10.75L103.74 10.75Q104.02 10.62 104.04 10.53L104.04 10.53Q104.34 9.17 104.43 8.72L104.43 8.72Q104.44 8.72 104.44 8.72L104.44 8.72Q104.45 8.72 104.45 8.72L104.45 8.72Q104.56 8.85 105.24 9.70L105.24 9.70Q106.56 11.34 107.32 11.92L107.32 11.92Q107.55 12.09 108.27 11.83L108.27 11.83Q108.45 11.76 108.60 11.67L108.60 11.67Q108.84 11.52 108.71 11.42L108.71 11.42ZM119.80 1.42Q119.09 1.19 117.91 1.57L117.91 1.57Q116.40 2.06 115.83 3.77L115.83 3.77Q115.49 4.83 115.66 6.11L115.66 6.11Q115.75 6.76 116.02 7.16L116.02 7.16Q115.60 7.38 115.31 7.70L115.31 7.70Q114.31 8.80 114.42 10.01L114.42 10.01Q114.49 10.70 114.97 11.11L114.97 11.11Q115.36 11.44 116.19 11.42L116.19 11.42Q117.02 11.39 117.73 10.95L117.73 10.95Q118.48 10.49 118.78 9.76L118.78 9.76Q118.84 9.61 118.56 9.60L118.56 9.60Q118.39 9.59 118.20 9.63L118.20 9.63Q117.45 9.76 117.35 10.02L117.35 10.02Q117.15 10.51 116.80 10.80L116.80 10.80Q116.79 10.81 116.77 10.82L116.77 10.82Q116.72 10.81 116.72 10.81L116.72 10.81Q116.65 10.79 116.57 10.75L116.57 10.75Q116.40 10.68 116.25 10.52L116.25 10.52Q115.96 10.23 115.88 9.63L115.88 9.63Q115.79 8.83 116.42 7.86L116.42 7.86Q116.50 7.74 116.60 7.62L116.60 7.62Q116.81 7.70 117.09 7.72L117.09 7.72Q117.49 7.74 117.98 7.51L117.98 7.51Q118.40 7.32 118.25 7.18L118.25 7.18Q117.96 6.90 117.54 6.84L117.54 6.84Q117.50 6.79 117.46 6.75L117.46 6.75Q117.26 6.45 117.15 5.89L117.15 5.89Q116.96 4.89 117.14 4.00L117.14 4.00Q117.41 2.70 118.17 2.04L118.17 2.04Q118.23 2.00 118.32 1.93L118.32 1.93Q118.33 1.93 118.33 1.93L118.33 1.93Q118.46 1.94 118.44 1.93L118.44 1.93Q119.02 2.02 118.90 2.62L118.90 2.62Q118.86 2.86 119.49 2.75L119.49 2.75Q119.79 2.69 120.05 2.58L120.05 2.58Q120.33 2.45 120.35 2.36L120.35 2.36Q120.48 1.63 119.80 1.42L119.80 1.42ZM139.25 9.37Q139.16 9.50 138.91 9.70L138.91 9.70Q138.87 9.73 138.76 9.80L138.76 9.80Q138.71 9.84 138.65 9.87L138.65 9.87Q138.54 9.94 138.55 9.93L138.55 9.93Q138.46 9.97 138.35 10.03L138.35 10.03Q138.33 10.04 138.26 10.06L138.26 10.06Q138.26 10.07 138.15 10.11L138.15 10.11Q138.14 10.11 138.07 10.14L138.07 10.14Q137.99 10.16 137.98 10.17L137.98 10.17Q137.89 10.19 137.79 10.21L137.79 10.21Q137.76 10.23 137.62 10.25L137.62 10.25Q137.62 10.25 137.57 10.26L137.57 10.26Q137.59 10.26 137.45 10.27L137.45 10.27Q137.38 10.28 137.25 10.29L137.25 10.29Q137.28 10.29 137.10 10.29L137.10 10.29Q137.18 10.03 137.54 8.24L137.54 8.24Q137.86 8.20 138.13 8.05L138.13 8.05Q138.26 7.99 138.40 7.93L138.40 7.93Q138.41 7.92 138.41 7.92L138.41 7.92Q138.41 7.92 138.42 7.92L138.42 7.92Q138.50 7.88 138.63 7.84L138.63 7.84Q138.64 7.84 138.64 7.83L138.64 7.83L138.65 7.83Q138.67 7.83 138.73 7.81L138.73 7.81Q138.80 7.79 138.81 7.79L138.81 7.79Q138.85 7.79 138.89 7.78L138.89 7.78Q138.93 7.77 138.97 7.77L138.97 7.77Q138.97 7.77 138.98 7.77L138.98 7.77Q139.00 7.77 139.03 7.77L139.03 7.77Q139.06 7.77 139.08 7.77L139.08 7.77Q139.09 7.77 139.13 7.78L139.13 7.78Q139.25 7.81 139.36 7.88L139.36 7.88Q139.59 8.03 139.59 8.46L139.59 8.46Q139.59 8.93 139.25 9.37L139.25 9.37ZM138.88 6.15Q138.39 6.95 137.70 7.54L137.70 7.54Q137.84 6.95 138.11 6.02L138.11 6.02Q138.84 3.45 139.02 2.44L139.02 2.44Q139.54 2.95 139.60 3.83L139.60 3.83Q139.68 4.83 138.88 6.15L138.88 6.15ZM139.20 7.25Q139.81 6.67 140.27 5.95L140.27 5.95Q141.18 4.56 141.05 3.30L141.05 3.30Q140.94 2.15 139.93 1.62L139.93 1.62Q138.91 1.08 137.31 1.55L137.31 1.55Q136.58 1.76 136.63 1.96L136.63 1.96Q136.70 2.20 137.42 1.99L137.42 1.99Q137.60 1.93 137.55 1.95L137.55 1.95Q137.61 1.94 137.62 1.93L137.62 1.93Q137.63 1.93 137.65 1.93L137.65 1.93Q137.69 1.93 137.72 1.93L137.72 1.93Q137.70 1.97 137.69 2.02L137.69 2.02Q137.54 3.23 136.66 6.28L136.66 6.28Q136.32 7.50 136.12 8.38L136.12 8.38Q135.63 10.71 135.64 10.66L135.64 10.66Q135.58 10.84 135.94 10.83L135.94 10.83Q136.00 10.87 136.13 10.88L136.13 10.88Q137.67 10.93 139.30 10.16L139.30 10.16Q140.91 9.39 141.05 8.16L141.05 8.16Q141.18 6.88 139.20 7.25L139.20 7.25ZM152.86 1.42Q152.15 1.19 150.96 1.57L150.96 1.57Q149.45 2.06 148.89 3.77L148.89 3.77Q148.54 4.83 148.72 6.11L148.72 6.11Q148.81 6.76 149.08 7.16L149.08 7.16Q148.66 7.38 148.37 7.70L148.37 7.70Q147.37 8.80 147.48 10.01L147.48 10.01Q147.55 10.70 148.03 11.11L148.03 11.11Q148.42 11.44 149.25 11.42L149.25 11.42Q150.08 11.39 150.79 10.95L150.79 10.95Q151.54 10.49 151.84 9.76L151.84 9.76Q151.90 9.61 151.62 9.60L151.62 9.60Q151.45 9.59 151.26 9.63L151.26 9.63Q150.51 9.76 150.40 10.02L150.40 10.02Q150.21 10.51 149.86 10.80L149.86 10.80Q149.84 10.81 149.83 10.82L149.83 10.82Q149.78 10.81 149.78 10.81L149.78 10.81Q149.71 10.79 149.63 10.75L149.63 10.75Q149.46 10.68 149.30 10.52L149.30 10.52Q149.02 10.23 148.94 9.63L148.94 9.63Q148.85 8.83 149.47 7.86L149.47 7.86Q149.56 7.74 149.66 7.62L149.66 7.62Q149.87 7.70 150.14 7.72L150.14 7.72Q150.55 7.74 151.04 7.51L151.04 7.51Q151.46 7.32 151.31 7.18L151.31 7.18Q151.02 6.90 150.60 6.84L150.60 6.84Q150.55 6.79 150.52 6.75L150.52 6.75Q150.32 6.45 150.21 5.89L150.21 5.89Q150.01 4.89 150.20 4.00L150.20 4.00Q150.47 2.70 151.23 2.04L151.23 2.04Q151.29 2.00 151.38 1.93L151.38 1.93Q151.39 1.93 151.39 1.93L151.39 1.93Q151.52 1.94 151.50 1.93L151.50 1.93Q152.08 2.02 151.96 2.62L151.96 2.62Q151.92 2.86 152.54 2.75L152.54 2.75Q152.85 2.69 153.10 2.58L153.10 2.58Q153.38 2.45 153.41 2.36L153.41 2.36Q153.54 1.63 152.86 1.42L152.86 1.42ZM162.31 7.83L162.31 7.83Q162.32 7.83 162.35 7.81L162.35 7.81Q162.32 7.83 162.31 7.83L162.31 7.83ZM163.86 1.67Q163.49 0.90 162.13 1.50L162.13 1.50Q161.57 1.75 161 2.55L161 2.55Q160.54 3.20 160.11 4.06L160.11 4.06Q159.19 5.91 158.91 8.21L158.91 8.21Q158.79 9.15 158.78 9.80L158.78 9.80Q158.76 10.74 159.19 11.05L159.19 11.05Q159.65 11.39 160.78 11.00L160.78 11.00Q161.43 10.77 162.03 10.19L162.03 10.19Q162.54 9.71 162.85 8.87L162.85 8.87Q163.00 8.48 163.06 8.11L163.06 8.11Q163.11 7.72 163.01 7.57L163.01 7.57Q162.83 7.29 162.16 7.43L162.16 7.43Q161.44 7.58 160.82 8.07L160.82 8.07Q160.64 8.21 160.85 8.27L160.85 8.27Q161 8.31 161.16 8.30L161.16 8.30Q161.40 8.28 161.62 8.21L161.62 8.21Q161.64 8.48 161.44 9.04L161.44 9.04Q161.25 9.59 160.99 9.99L160.99 9.99Q160.95 10.06 160.92 10.08L160.92 10.08Q160.81 10.21 160.71 10.31L160.71 10.31Q160.62 10.40 160.49 10.51L160.49 10.51Q160.45 10.45 160.39 10.36L160.39 10.36Q160.27 10.13 160.24 9.65L160.24 9.65Q160.23 9.36 160.33 8.16L160.33 8.16Q160.52 5.98 161.47 3.95L161.47 3.95Q162.00 2.84 162.48 2.21L162.48 2.21Q162.59 2.51 162.61 2.81L162.61 2.81Q162.62 3.19 162.43 3.34L162.43 3.34Q162.26 3.47 162.46 3.53L162.46 3.53Q162.61 3.58 162.77 3.57L162.77 3.57Q163.37 3.51 163.75 3.22L163.75 3.22Q164.06 2.98 164.06 2.48L164.06 2.48Q164.06 2.06 163.86 1.67L163.86 1.67ZM171.87 2.53Q171.62 3.62 171.01 6.79L171.01 6.79Q170.77 8.03 170.58 8.93L170.58 8.93Q170.19 10.78 170.18 10.91L170.18 10.91Q170.18 10.99 170.41 11.00L170.41 11.00Q170.63 11.01 170.91 10.96L170.91 10.96Q171.64 10.81 171.64 10.52L171.64 10.52Q171.65 10.23 171.81 9.62L171.81 9.62Q171.88 9.32 172.04 8.57L172.04 8.57Q172.21 7.77 172.47 6.44L172.47 6.44Q173.07 3.36 173.31 2.27L173.31 2.27Q173.37 2.02 172.72 2.13L172.72 2.13Q172.42 2.19 172.17 2.31L172.17 2.31Q171.89 2.44 171.87 2.53L171.87 2.53ZM185.92 0.74Q185.62 0.79 185.36 0.91L185.36 0.91Q185.09 1.04 185.06 1.13L185.06 1.13Q184.18 3.96 183.56 7.39L183.56 7.39Q183.48 6.88 183.36 6.21L183.36 6.21Q183.07 4.44 183.02 4.05L183.02 4.05Q182.87 2.77 182.68 2.37L182.68 2.37Q182.68 2.37 182.66 2.35L182.66 2.35L182.67 2.34Q182.67 2.34 182.67 2.33L182.67 2.33Q182.71 2.08 182.08 2.20L182.08 2.20Q181.78 2.26 181.53 2.37L181.53 2.37Q181.24 2.51 181.23 2.60L181.23 2.60Q181.04 3.71 180.40 6.73L180.40 6.73Q179.85 9.34 179.65 10.89L179.65 10.89Q179.63 11.01 180.02 10.98L180.02 10.98Q180.27 10.96 180.44 10.91L180.44 10.91Q181.08 10.74 181.11 10.50L181.11 10.50Q181.31 8.97 181.86 6.38L181.86 6.38Q181.89 6.54 181.90 6.61L181.90 6.61Q182.12 7.90 182.29 8.95L182.29 8.95Q182.55 10.45 182.78 11.09L182.78 11.09Q182.83 11.24 183.18 11.21L183.18 11.21Q183.49 11.18 183.83 11.05L183.83 11.05Q184.41 10.89 184.45 10.65L184.45 10.65Q185.22 5.00 186.50 0.87L186.50 0.87Q186.59 0.62 185.92 0.74L185.92 0.74Z"></path></g></svg>